# xmcd CD database file
#
# Track frame offsets:
#	150
#	20565
#	39810
#	71685
#
# Disc length: 1226 seconds
#
# Revision: 0
# Processed by: cddbd v1.5.1PL0 Copyright (c) Steve Scherf et al.
# Submitted via: CDex 1.51
#
DISCID=2a04c804
DTITLE=New Cinema 蜥蜴 - Free Bird
DYEAR=2001
DGENRE=Rock
TTITLE0=Free Bird
TTITLE1=Days
TTITLE2=FreeBird-VER.M.E.S-
TTITLE3=Free Bird-instrumental-
EXTD=YEAR: 2001
EXTT0=
EXTT1=
EXTT2=
EXTT3=
PLAYORDER=
